# xmcd
#
# Track frame offsets: 
#        150
#        26827
#        41477
#        54203
#        63992
#        80701
#        99698
#        114602
#        125954
#        146649
#        161177
#        175622
#
# Disc length: 2457 seconds
#
# Revision: 2
# Processed by: cddbd v1.5.2PL0 Copyright (c) Steve Scherf et al.
# Submitted via: ExactAudioCopy v0.95b4
#
DISCID=ab09970c
DTITLE=Dr John - Trader John's Crawfish Soiree [CD2]
DYEAR=1900
DGENRE=Blues
TTITLE0=Crawfish soiree (bring your own)
TTITLE1=Tipitina
TTITLE2=In the night
TTITLE3=Woman is the root of all evil
TTITLE4=The time had come
TTITLE5=Shoo raa
TTITLE6=Zu zu man
TTITLE7=Baldhead
TTITLE8=Mean cheatin' woman
TTITLE9=Make your own bed well
TTITLE10=A little closer to my home
TTITLE11=Della (part II)
EXTD=
EXTT0=
EXTT1=
EXTT2=
EXTT3=
EXTT4=
EXTT5=
EXTT6=
EXTT7=
EXTT8=
EXTT9=
EXTT10=
EXTT11=
PLAYORDER=
